#!OML:ASF E:\emotionWalksFemale\Project 1\Capture day 1\Session 1\Female1.ASF
:FULLY-SPECIFIED
:DEGREES
617
root 9.98526 15.3502 -24.4012 -180.302 -4.67947 -173.593
lowerback 5.95059 2.1727 3.71505
upperback -3.79414 3.18685 -0.104398
thorax -7.10868 1.35588 -2.56595
lowerneck -5.98141 -6.45942 -11.8117
upperneck 6.47873 -9.05215 14.1149
head 4.10079 -4.31708 5.73709
rclavicle -5.32246e-014 -4.37326e-014
rhumerus -28.2217 10.5803 -90.0817
rradius 36.2518
rwrist 16.3317
rhand -1.82298 -52.8036
rfingers 7.12502
rthumb 23.8432 -81.3438
lclavicle -5.32246e-014 -4.37326e-014
lhumerus -42.5045 3.12951 83.6036
lradius 35.593
lwrist -13.2931
lhand -7.97224 -35.223
lfingers 7.12502
lthumb 17.9356 -6.03002
rfemur 9.12841 13.3127 39.0467
rtibia 7.30466
rfoot -10.707 -27.7329
rtoes 16.8571
lfemur -31.8272 -5.96671 -15.8213
ltibia 35.6439
lfoot -21.8982 14.94
ltoes 1.40113
618
root 9.97801 15.349 -24.5089 -180.156 -4.47792 -173.422
lowerback 5.86806 2.2118 3.90548
upperback -3.8793 3.25137 -0.0783713
thorax -7.13946 1.37461 -2.65027
lowerneck -5.95807 -6.43714 -11.7232
upperneck 6.34828 -9.00582 14.0312
head 4.04371 -4.29632 5.70092
rclavicle 2.48481e-016 2.38542e-015
rhumerus -28.2253 10.576 -90.4573
rradius 36.6233
rwrist 16.0686
rhand -1.47442 -53.1022
rfingers 7.12502
rthumb 24.1774 -81.5983
lclavicle 2.48481e-016 2.38542e-015
lhumerus -42.7738 3.03284 83.5641
lradius 35.3504
lwrist -13.0894
lhand -7.51377 -35.0289
lfingers 7.12502
lthumb 18.3766 -5.87688
rfemur 10.1795 13.1188 39.2321
rtibia 5.66679
rfoot -10.0194 -27.3379
rtoes 16.745
lfemur -31.9233 -6.7474 -15.4402
ltibia 34.013
lfoot -21.8962 16.8782
ltoes -3.62603
619
root 9.96658 15.3488 -24.6193 -180.092 -4.34242 -173.375
lowerback 5.8734 2.20335 4.01299
upperback -3.93053 3.24868 -0.080302
thorax -7.19215 1.36452 -2.71363
lowerneck -6.50077 -6.32933 -11.8748
upperneck 6.74825 -8.8517 14.188
head 4.24885 -4.19427 5.77269
rclavicle 0 -2.38542e-015
rhumerus -28.2482 10.7418 -90.9096
rradius 36.924
rwrist 15.706
rhand -1.30141 -53.5374
rfingers 7.12502
rthumb 24.3433 -82.0114
lclavicle 0 -2.38542e-015
lhumerus -43.0914 3.26953 83.4319
lradius 35.2295
lwrist -13.3965
lhand -6.87228 -34.498
lfingers 7.12502
lthumb 18.9937 -5.40542
rfemur 12.0321 12.8345 39.2733
rtibia 2.64085
rfoot -8.38792 -26.7636
rtoes 15.4315
lfemur -31.9615 -7.8801 -15.0694
ltibia 32.5792
lfoot -22.5983 18.5377
ltoes -5.02849
620
root 9.95187 15.3449 -24.7276 -180.134 -4.43467 -173.316
lowerback 6.00692 2.10704 4.15065
upperback -3.93623 3.14081 -0.0519144
thorax -7.27879 1.30266 -2.7553
lowerneck -5.7974 -6.26651 -11.905
upperneck 5.7633 -8.70886 14.1351
head 3.8163 -4.15939 5.79573
rclavicle -1.83379e-014 -3.18055e-015
rhumerus -28.2244 10.9045 -91.2772
rradius 37.1032
rwrist 15.5969
rhand -1.15118 -53.5323
rfingers 7.12502
rthumb 24.4873 -81.9869
lclavicle -1.83379e-014 -3.18055e-015
lhumerus -43.3199 3.58409 83.3477
lradius 35.1004
lwrist -13.6826
lhand -6.12687 -33.982
lfingers 7.12502
lthumb 19.7104 -4.96131
rfemur 13.8032 12.3017 39.317
rtibia -2.8625e-014
rfoot -7.19193 -26.1613
rtoes 14.6674
lfemur -32.0077 -9.39296 -14.623
ltibia 31.3286
lfoot -23.4176 20.3263
ltoes -5.33817
621
root 9.94014 15.3429 -24.8329 -179.963 -4.31901 -173.22
lowerback 5.87683 2.09992 4.24766
upperback -3.98355 3.13377 0.00264826
thorax -7.25294 1.29382 -2.74619
lowerneck -6.46376 -6.39941 -11.5459
upperneck 6.18281 -8.83635 13.6177
head 4.02998 -4.19751 5.54076
rclavicle -6.65929e-015 -7.95139e-016
rhumerus -28.2717 11.0159 -91.6101
rradius 37.3739
rwrist 15.4926
rhand -1.40522 -53.1406
rfingers 7.12502
rthumb 24.2438 -81.6279
lclavicle -6.65929e-015 -7.95139e-016
lhumerus -43.5604 3.762 83.3036
lradius 35.0512
lwrist -13.7428
lhand -5.96556 -33.8532
lfingers 7.12502
lthumb 19.8655 -4.8485
rfemur 14.0665 12.0371 39.3904
rtibia 2.38542e-014
rfoot -7.38184 -25.9142
rtoes 14.2113
lfemur -32.2681 -10.9653 -13.9706
ltibia 30.2176
lfoot -24.3017 22.6007
ltoes -3.57495
622
root 9.93723 15.3446 -24.9415 -179.566 -3.50183 -173.086
lowerback 5.46165 2.34361 4.14243
upperback -4.06228 3.42915 0.103503
thorax -7.08536 1.44689 -2.59492
lowerneck -6.2259 -6.09736 -11.6072
upperneck 5.66686 -8.4274 13.9459
head 3.80106 -4.00344 5.69779
rclavicle 1.77415e-014 3.89618e-014
rhumerus -28.322 11.0878 -91.9522
rradius 37.678
rwrist 15.2891
rhand -1.66528 -52.852
rfingers 7.12502
rthumb 23.9944 -81.3724
lclavicle 1.77415e-014 3.89618e-014
lhumerus -43.8125 4.11249 83.1147
lradius 34.9682
lwrist -14.1412
lhand -6.09682 -33.948
lfingers 7.12502
lthumb 19.7393 -4.93021
rfemur 14.1965 12.5071 39.5273
rtibia -2.54444e-014
rfoot -7.45412 -25.7107
rtoes 13.905
lfemur -32.5623 -12.4295 -12.9529
ltibia 29.2658
lfoot -26.9658 24.2229
ltoes 5.0071
623
root 9.92154 15.3377 -25.0519 -179.52 -3.39857 -173.046
lowerback 5.43478 2.3338 4.22443
upperback -4.05573 3.42183 0.119706
thorax -7.06002 1.44011 -2.62125
lowerneck -5.80668 -6.15917 -11.8476
upperneck 4.85221 -8.44622 14.0356
head 3.50623 -4.03599 5.7795
rclavicle 3.762e-014 1.98785e-014
rhumerus -28.2768 11.0826 -92.2644
rradius 37.7549
rwrist 15.1844
rhand -1.62557 -52.5741
rfingers 7.12502
rthumb 24.0325 -81.0894
lclavicle 3.762e-014 1.98785e-014
lhumerus -43.975 4.31109 82.9847
lradius 34.7751
lwrist -14.482
lhand -5.66976 -33.4096
lfingers 7.12502
lthumb 20.1498 -4.43456
rfemur 14.5808 12.19 39.5556
rtibia -3.33958e-014
rfoot -7.88887 -25.5121
rtoes 14.5329
lfemur -32.6417 -14.4013 -12.2067
ltibia 28.4577
lfoot -29.2485 25.7633
ltoes 10.3747
624
root 9.90756 15.3293 -25.1593 -179.406 -3.28632 -172.996
lowerback 5.28475 2.3263 4.28627
upperback -3.99036 3.40965 0.148568
thorax -6.90267 1.43766 -2.61462
lowerneck -6.32062 -6.33761 -11.8435
upperneck 4.92762 -8.6124 13.8095
head 3.62625 -4.10042 5.67896
rclavicle 3.0911e-014 -7.95139e-015
rhumerus -28.1543 11.0444 -92.5465
rradius 37.8885
rwrist 15.0479
rhand -1.63909 -52.3825
rfingers 7.12502
rthumb 24.0195 -80.8996
lclavicle 3.0911e-014 -7.95139e-015
lhumerus -43.9163 4.40209 82.969
lradius 34.5757
lwrist -14.5659
lhand -5.13387 -32.5536
lfingers 7.12502
lthumb 20.6648 -3.63375
rfemur 14.8911 11.903 39.5901
rtibia -3.02153e-014
rfoot -7.99343 -25.2869
rtoes 14.4092
lfemur -32.8209 -16.2003 -11.4788
ltibia 27.7726
lfoot -30.4664 28.1321
ltoes 11.1881
625
root 9.88897 15.3183 -25.2705 -179.318 -3.35954 -172.926
lowerback 5.49514 2.26707 4.46415
upperback -4.2156 3.35353 0.13728
thorax -7.26019 1.38254 -2.73639
lowerneck -6.39081 -6.27738 -11.7405
upperneck 4.98595 -8.52896 13.7107
head 3.63519 -4.05698 5.63528
rclavicle -4.57205e-015 -1.43125e-014
rhumerus -28.7349 10.8699 -92.9615
rradius 38.3431
rwrist 14.8399
rhand -1.50552 -52.5611
rfingers 7.12502
rthumb 24.1476 -81.0612
lclavicle -4.57205e-015 -1.43125e-014
lhumerus -44.4821 4.25282 82.9275
lradius 34.5767
lwrist -14.3996
lhand -5.04008 -32.5227
lfingers 7.12502
lthumb 20.7549 -3.61265
rfemur 15.259 11.4314 39.6429
rtibia -3.65764e-014
rfoot -8.06081 -25.1611
rtoes 13.7232
lfemur -33.0343 -18.4692 -10.5574
ltibia 27.2042
lfoot -32.9326 29.6911
ltoes 16.3661
626
root 9.86883 15.3117 -25.3854 -179.176 -3.29776 -172.985
lowerback 5.24906 2.2599 4.50698
upperback -4.18366 3.33057 0.115168
thorax -7.08138 1.37407 -2.76767
lowerneck -6.50921 -6.07494 -11.3904
upperneck 4.68786 -8.2269 13.528
head 3.50445 -3.90576 5.54245
rclavicle 1.37658e-014 1.74931e-014
rhumerus -28.7811 10.8974 -93.2432
rradius 38.5714
rwrist 14.6932
rhand -0.999387 -52.844
rfingers 7.12502
rthumb 24.6328 -81.2789
lclavicle 1.37658e-014 1.74931e-014
lhumerus -44.5551 4.25918 82.8887
lradius 34.3031
lwrist -14.4026
lhand -5.22996 -33.0296
lfingers 7.12502
lthumb 20.5725 -4.09968
rfemur 15.596 11.1066 39.5381
rtibia 9.54166e-015
rfoot -8.16447 -25.1559
rtoes 13.1013
lfemur -33.314 -20.9715 -9.60677
ltibia 26.7863
lfoot -36.6335 30.5289
ltoes 23.3808
627
root 9.8566 15.3155 -25.4973 -178.852 -2.73684 -172.955
lowerback 4.94572 2.41615 4.40566
upperback -4.23722 3.51351 0.189756
thorax -6.95833 1.4709 -2.63716
lowerneck -6.90648 -6.06385 -11.1541
upperneck 4.76429 -8.16957 13.2266
head 3.56287 -3.86494 5.40216
rclavicle 2.98177e-016 -7.15625e-015
rhumerus -28.8398 10.9725 -93.5079
rradius 38.6099
rwrist 14.5543
rhand -0.979022 -52.8921
rfingers 7.12502
rthumb 24.6523 -81.3242
lclavicle 2.98177e-016 -7.15625e-015
lhumerus -44.5054 4.77643 82.647
lradius 33.8239
lwrist -14.8558
lhand -4.89721 -32.9457
lfingers 7.12502
lthumb 20.8922 -4.05074
rfemur 15.7348 11.3159 39.5165
rtibia 2.22639e-014
rfoot -8.09841 -25.0482
rtoes 12.5567
lfemur -33.6737 -22.7495 -8.60948
ltibia 26.4755
lfoot -39.8112 31.7797
ltoes 27.5154
628
root 9.83675 15.3094 -25.609 -178.848 -2.74106 -172.807
lowerback 4.90022 2.32551 4.50801
upperback -4.24032 3.40068 0.297587
thorax -6.94499 1.41172 -2.5677
lowerneck -6.19933 -5.70969 -11.175
upperneck 3.71429 -7.67378 13.4177
head 3.08134 -3.65314 5.52776
rclavicle 2.5345e-015 -1.74931e-014
rhumerus -29.1084 10.956 -93.836
rradius 38.7155
rwrist 14.5875
rhand -1.26182 -52.6559
rfingers 7.12502
rthumb 24.3812 -81.1248
lclavicle 2.5345e-015 -1.74931e-014
lhumerus -44.7466 5.37959 82.3693
lradius 33.7139
lwrist -15.3073
lhand -4.57476 -32.8382
lfingers 7.12502
lthumb 21.2019 -3.97764
rfemur 16.1198 10.8898 39.6386
rtibia -3.33958e-014
rfoot -8.27464 -24.8838
rtoes 12.8841
lfemur -33.825 -24.5122 -7.75062
ltibia 26.1984
lfoot -42.8498 32.1393
ltoes 32.9312
629
root 9.81582 15.2957 -25.7204 -178.766 -2.70235 -172.724
lowerback 4.71689 2.2632 4.63337
upperback -4.20639 3.31509 0.317911
thorax -6.80387 1.36792 -2.59777
lowerneck -6.32132 -5.85875 -11.4324
upperneck 3.47334 -7.83359 13.5882
head 3.06849 -3.73062 5.61044
rclavicle -3.24019e-014 -3.26007e-014
rhumerus -29.2273 11.0175 -94.1911
rradius 38.7177
rwrist 14.5973
rhand -1.32216 -52.3124
rfingers 7.12502
rthumb 24.3234 -80.7891
lclavicle -3.24019e-014 -3.26007e-014
lhumerus -44.9611 5.35851 82.313
lradius 33.7346
lwrist -15.3737
lhand -4.69483 -33.3281
lfingers 7.12502
lthumb 21.0866 -4.45468
rfemur 16.4977 10.5252 39.6998
rtibia 3.65764e-014
rfoot -8.29612 -24.8309
rtoes 13.105
lfemur -33.9777 -26.1549 -6.96101
ltibia 25.9835
lfoot -45.1812 32.1488
ltoes 36.2587
630
root 9.79445 15.2884 -25.8361 -178.681 -2.64209 -172.725
lowerback 4.42934 2.25415 4.73819
upperback -4.10056 3.29183 0.305721
thorax -6.52064 1.36218 -2.6499
lowerneck -6.31412 -5.71153 -10.5889
upperneck 2.85754 -7.58369 12.7772
head 2.78658 -3.62088 5.2406
rclavicle 9.93923e-015 -1.59028e-015
rhumerus -29.1923 11.2779 -94.4421
rradius 38.631
rwrist 14.1972
rhand -0.861168 -52.242
rfingers 7.12502
rthumb 24.7653 -80.6587
lclavicle 9.93923e-015 -1.59028e-015
lhumerus -44.8399 5.06239 82.4323
lradius 33.5137
lwrist -15.2354
lhand -4.55084 -33.8025
lfingers 7.12502
lthumb 21.2249 -4.94459
rfemur 16.9341 10.1792 39.6721
rtibia -3.18055e-015
rfoot -8.38173 -24.7612
rtoes 13.9488
lfemur -33.8539 -26.9081 -6.79642
ltibia 25.8136
lfoot -46.6305 31.8529
ltoes 37.7198
